#N canvas 388 21 1491 770 12;
#X obj 19 21 tgl 15 0 empty empty empty 17 7 0 10 -262144 -1 -1 0 1
;
#X msg 19 46 \; pd dsp \$1;
#X obj 293 206 hradio 15 1 0 4 empty empty empty 0 -8 0 10 -262144
-1 -1 0;
#X floatatom 347 62 5 0 0 0 - - -;
#X obj 292 71 tgl 15 0 empty empty empty 17 7 0 10 -262144 -1 -1 0
1;
#X obj 293 134 f;
#X obj 333 135 + 1;
#X obj 289 510 mtof;
#X obj 273 722 dac~;
#X obj 293 103 metro 500;
#X obj 378 639 vline~;
#X obj 287 677 *~;
#X obj 293 168 mod 4;
#X obj 293 238 select 0 1 2 3;
#X obj 291 452 f;
#X obj 384 451 f;
#X obj 429 452 f;
#X obj 337 452 f;
#X obj 285 563 osc~;
#X msg 312 416 46;
#X msg 395 416 44;
#X msg 378 613 1 10 \, 0 75 400;
#X msg 355 410 50;
#X msg 442 413 58;
#X obj 584 139 netreceive -u -b;
#X msg 607 98 listen 0;
#X text 681 98 stop listening;
#X text 593 13 packets from network;
#X text 702 132 UDP packets \, binary output, f 13;
#X obj 574 269 print;
#X obj 574 227 oscparse;
#X text 679 69 listen on port 8000;
#X obj 706 224 oscparse;
#X obj 706 248 list trim;
#X floatatom 608 350 5 0 0 0 - - -;
#X text 770 222 Parse the OSC message;
#X obj 706 274 route unity;
#X obj 607 327 route trigger;
#X obj 608 377 s osctrig;
#X msg 595 70 listen 8000;
#X obj 595 39 loadbang;
#X obj 348 25 r osctrig;
#X msg 714 659 disconnect;
#X obj 617 705 netsend -u -b;
#X obj 615 507 list prepend send;
#X obj 615 532 list trim;
#X msg 706 627 connect 127.0.0.1 8001;
#X obj 615 481 r oscOut;
#X text 874 612 send to port 8001;
#X msg 703 600 connect localhost 8001;
#X obj 703 560 loadbang;
#X text 1058 119 creation arguments are OSC address;
#X text 1045 78 set message to change OSC address;
#X floatatom 909 34 5 0 0 0 - - -;
#X obj 910 118 oscformat PD message;
#X msg 942 79 set PD message;
#X obj 910 153 s oscOut;
#X obj 720 370 route power;
#X floatatom 720 394 5 0 0 0 - - -;
#X obj 720 417 s oscpower;
#X obj 55 667 dac~;
#X obj 62 606 readsf~;
#X msg 62 568 open nooo.wav \, 1;
#X obj 63 350 dac~;
#X obj 70 289 readsf~;
#X msg 70 251 open mooon.wav \, 1;
#X obj 59 503 r oscloss;
#X obj 68 198 r oscpower;
#X text 221 33 background music;
#X text 53 169 powerup sound;
#X text 55 474 endgame sound;
#X floatatom 814 345 5 0 0 0 - - -;
#X obj 814 321 route loss;
#X obj 814 368 s oscloss;
#X connect 0 0 1 0;
#X connect 2 0 13 0;
#X connect 3 0 9 1;
#X connect 4 0 9 0;
#X connect 5 0 6 0;
#X connect 5 0 12 0;
#X connect 6 0 5 1;
#X connect 7 0 21 0;
#X connect 7 0 18 0;
#X connect 9 0 5 0;
#X connect 10 0 11 1;
#X connect 11 0 8 1;
#X connect 11 0 8 0;
#X connect 12 0 2 0;
#X connect 13 0 14 0;
#X connect 13 0 19 0;
#X connect 13 1 17 0;
#X connect 13 1 22 0;
#X connect 13 2 15 0;
#X connect 13 2 20 0;
#X connect 13 3 16 0;
#X connect 13 3 23 0;
#X connect 14 0 7 0;
#X connect 15 0 7 0;
#X connect 16 0 7 0;
#X connect 17 0 7 0;
#X connect 18 0 11 0;
#X connect 19 0 14 1;
#X connect 20 0 15 1;
#X connect 21 0 10 0;
#X connect 22 0 17 1;
#X connect 23 0 16 1;
#X connect 24 0 30 0;
#X connect 24 0 32 0;
#X connect 25 0 24 0;
#X connect 30 0 29 0;
#X connect 32 0 33 0;
#X connect 33 0 36 0;
#X connect 34 0 38 0;
#X connect 36 0 37 0;
#X connect 36 0 57 0;
#X connect 36 0 72 0;
#X connect 37 0 34 0;
#X connect 39 0 24 0;
#X connect 40 0 39 0;
#X connect 41 0 3 0;
#X connect 42 0 43 0;
#X connect 44 0 45 0;
#X connect 45 0 43 0;
#X connect 46 0 43 0;
#X connect 47 0 44 0;
#X connect 49 0 43 0;
#X connect 50 0 49 0;
#X connect 53 0 54 0;
#X connect 54 0 56 0;
#X connect 55 0 54 0;
#X connect 57 0 58 0;
#X connect 58 0 59 0;
#X connect 61 0 60 0;
#X connect 61 0 60 1;
#X connect 62 0 61 0;
#X connect 64 0 63 0;
#X connect 64 0 63 1;
#X connect 65 0 64 0;
#X connect 66 0 62 0;
#X connect 67 0 65 0;
#X connect 71 0 73 0;
#X connect 72 0 71 0;
